<?xml version="1.0" encoding="UTF-8"?>
<svg xmlns="http://www.w3.org/2000/svg" style="display: none;">
    <!-- Футболка -->
    <symbol id="tshirt" viewBox="0 0 24 24">
        <path d="M20 4h-3.5l-1-1h-5l-1 1H4v2h16V4z" fill="#3498db"/>
        <path d="M4 6h16v12H4V6z" fill="#2980b9"/>
        <path d="M8 8h8v2H8V8z" fill="#fff"/>
        <path d="M8 12h8v2H8v-2z" fill="#fff"/>
    </symbol>

    <!-- Джинсы -->
    <symbol id="jeans" viewBox="0 0 24 24">
        <path d="M4 4h16v16H4V4z" fill="#2ecc71"/>
        <path d="M8 8h8v12H8V8z" fill="#27ae60"/>
        <path d="M4 8h4v12H4V8z" fill="#27ae60"/>
        <path d="M16 8h4v12h-4V8z" fill="#27ae60"/>
        <path d="M8 12h8v2H8v-2z" fill="#fff"/>
    </symbol>

    <!-- Кроссовки -->
    <symbol id="sneakers" viewBox="0 0 24 24">
        <path d="M4 8h16v8H4V8z" fill="#e74c3c"/>
        <path d="M8 12h12v4H8v-4z" fill="#c0392b"/>
        <path d="M12 8h4v4h-4V8z" fill="#fff"/>
        <path d="M4 12h4v4H4v-4z" fill="#fff"/>
    </symbol>

    <!-- Сумка -->
    <symbol id="bag" viewBox="0 0 24 24">
        <path d="M8 4h8v4H8V4z" fill="#f1c40f"/>
        <path d="M6 8h12v12H6V8z" fill="#f39c12"/>
        <path d="M10 12h4v8h-4v-8z" fill="#fff"/>
        <path d="M8 8h8v2H8V8z" fill="#fff"/>
    </symbol>
</svg> 